<svg width="1440" height="1024" viewBox="0 0 1440 1024" fill="none" xmlns="http://www.w3.org/2000/svg">
<g clip-path="url(#clip0_45_202)">
<rect width="1440" height="1024" fill="#2B292B"/>
<path d="M200.1 348H208.25L217.95 376.35H219.7L229.4 348H242.4L252.15 376.35H253.85L263.6 348H271.75L259.75 383H246.4L236.7 354.65H235.15L225.4 383H212.1L200.1 348ZM277.98 383V348H320.33V354.6H285.98V362.35H317.83V368.65H285.98V376.4H320.33V383H277.98ZM327.834 383V348H335.834V376.35H368.534V383H327.834ZM419.276 381.6C419.276 381.6 411.776 384 398.726 384C384.676 384 372.776 381.15 372.776 365.5C372.776 349.85 384.676 347 398.726 347C412.276 347 419.276 349.4 419.276 349.4V356.1C419.226 356.1 410.476 353.65 398.776 353.65C389.376 353.65 380.776 353.95 380.776 365.5C380.776 376.25 388.076 377.3 398.876 377.3C410.876 377.3 419.276 374.9 419.276 374.9V381.6ZM452.115 384.25C433.365 384.25 425.265 378.6 425.265 365.5C425.265 352.4 433.365 346.75 452.115 346.75C470.915 346.75 478.965 352.4 478.965 365.5C478.965 378.6 470.915 384.25 452.115 384.25ZM433.265 365.5C433.265 374.2 438.565 377.6 452.115 377.6C465.665 377.6 470.965 374.2 470.965 365.5C470.965 356.8 465.665 353.4 452.115 353.4C438.565 353.4 433.265 356.8 433.265 365.5ZM485.841 383V348H501.841L512.991 376.35H514.541L525.691 348H541.691V383H533.691V354.65H530.841L519.691 383H507.841L496.741 354.65H493.841V383H485.841ZM550.002 383V348H592.352V354.6H558.002V362.35H589.852V368.65H558.002V376.4H592.352V383H550.002ZM640.125 383V354.65H622.775V348H665.475V354.65H648.125V383H640.125ZM697.867 384.25C679.117 384.25 671.017 378.6 671.017 365.5C671.017 352.4 679.117 346.75 697.867 346.75C716.667 346.75 724.717 352.4 724.717 365.5C724.717 378.6 716.667 384.25 697.867 384.25ZM679.017 365.5C679.017 374.2 684.317 377.6 697.867 377.6C711.417 377.6 716.717 374.2 716.717 365.5C716.717 356.8 711.417 353.4 697.867 353.4C684.317 353.4 679.017 356.8 679.017 365.5Z" fill="white"/>
<path d="M753.909 348H762.059L771.759 376.35H773.509L783.209 348H796.209L805.959 376.35H807.659L817.409 348H825.559L813.559 383H800.209L790.509 354.65H788.959L779.209 383H765.909L753.909 348ZM873.289 383C872.239 378.55 867.089 374.9 852.539 374.85C848.489 374.9 844.189 374.85 839.789 374.7V383H831.789V348C838.439 347.55 845.089 347.2 851.239 347.2C867.639 347.2 880.489 349.8 880.489 360.6C880.489 366.5 875.889 370.2 869.139 371.5V372C877.339 373.6 880.789 378.15 881.639 383H873.289ZM839.789 354.25V368C843.039 368.15 846.239 368.2 849.339 368.2C862.039 368.2 872.489 366.75 872.489 360.65C872.489 355.15 863.889 353.85 852.839 353.85C848.739 353.85 844.239 354.05 839.789 354.25ZM903.596 383V374.05L883.596 348H892.096L907.046 366.9H908.446L923.096 348H931.596L911.596 374V383H903.596Z" fill="#00F0B5"/>
<path d="M1008.16 349.6V356.1C1004.61 354.9 996.264 353.4 986.314 353.4C976.214 353.4 969.114 355.65 969.114 359.8C969.114 361.7 970.964 362.35 973.664 362.35H1000.11C1007.86 362.35 1012.26 365.5 1012.26 371C1012.26 379.1 1002.96 384 984.964 384C976.114 384 966.864 382.75 962.714 381.4V374.75C966.264 375.95 973.214 377.4 984.914 377.4C999.364 377.4 1004.36 374.85 1004.36 371.1C1004.36 369.5 1002.81 368.65 999.864 368.65H972.514C964.664 368.65 961.164 365.3 961.164 359.95C961.164 351.7 969.664 347 986.564 347C995.014 347 1004.01 348.25 1008.16 349.6ZM1036.02 383V374.05L1016.02 348H1024.52L1039.47 366.9H1040.87L1055.52 348H1064.02L1044.02 374V383H1036.02ZM1070.22 383V348C1077.72 347.65 1085.07 347.25 1091.57 347.25C1105.92 347.25 1116.42 349.1 1116.42 357C1116.42 360.8 1113.97 363.15 1109.82 364.5C1115.37 365.9 1118.72 368.55 1118.72 372.9C1118.72 381.5 1106.17 383.7 1089.77 383.7C1083.67 383.7 1076.97 383.4 1070.22 383ZM1078.22 361.85H1097.17C1103.77 361.85 1107.97 360.85 1107.97 357.85C1107.97 354.8 1101.12 354.05 1091.62 354.05C1087.52 354.05 1082.97 354.2 1078.22 354.35V361.85ZM1078.22 367.9V376.75C1082.57 376.95 1086.82 377.1 1090.77 377.1C1101.82 377.1 1110.22 375.95 1110.22 372.2C1110.22 369.1 1105.77 367.9 1097.17 367.9H1078.22ZM1125.39 383V348H1133.39V383H1125.39ZM1141.75 383V348H1149.75V376.35H1182.45V383H1141.75ZM1235.31 349.6V356.1C1231.76 354.9 1223.41 353.4 1213.46 353.4C1203.36 353.4 1196.26 355.65 1196.26 359.8C1196.26 361.7 1198.11 362.35 1200.81 362.35H1227.26C1235.01 362.35 1239.41 365.5 1239.41 371C1239.41 379.1 1230.11 384 1212.11 384C1203.26 384 1194.01 382.75 1189.86 381.4V374.75C1193.41 375.95 1200.36 377.4 1212.06 377.4C1226.51 377.4 1231.51 374.85 1231.51 371.1C1231.51 369.5 1229.96 368.65 1227.01 368.65H1199.66C1191.81 368.65 1188.31 365.3 1188.31 359.95C1188.31 351.7 1196.81 347 1213.71 347C1222.16 347 1231.16 348.25 1235.31 349.6Z" fill="#F61067"/>
<path d="M0 564.5C201.24 502.56 315 743 506 794C651 832.717 927.952 594.998 1033 582.5C1170.98 566.083 1307.74 759.639 1440 726.5V1024H0V564.5Z" fill="#F61067"/>
<path d="M0 670.124C201.24 608.184 315 848.624 506 899.624C651 938.341 927.952 700.623 1033 688.124C1170.98 671.707 1307.74 865.263 1440 832.124V1129.62H0V670.124Z" fill="#FFD700"/>
</g>
<defs>
<clipPath id="clip0_45_202">
<rect width="1440" height="1024" fill="white"/>
</clipPath>
</defs>
</svg>
